{
	"asset": {
		"generator": "Tilt Brush 17.0.ec66acc",
		"version": "1.1",
		"copyright": "Unknown."
	},
	"buffers": {
		"sketch": {
			"byteLength": 994252,
			"type": "arraybuffer",
			"uri": "sketch.bin"
		}
	},
	"accessors": {
		"accessor_position_DiamondHull_c8313697-2563-47fc-832e-290f4c04b901_0_0": {
			"bufferView": "vec3BufferView",
			"byteOffset": 0,
			"byteStride": 12,
			"componentType": 5126,
			"count": 5142,
			"max": [ 0.7944207, 1.438188, 0.3446439 ],
			"min": [ -0.03760368, 0.627212, -0.2775841 ],
			"type": "VEC3"
		 },
		"accessor_normal_DiamondHull_c8313697-2563-47fc-832e-290f4c04b901_0_0": {
			"bufferView": "vec3BufferView",
			"byteOffset": 61704,
			"byteStride": 12,
			"componentType": 5126,
			"count": 5142,
			"max": [ 0.9998707, 0.9998695, 0.9990879 ],
			"min": [ -0.9998345, -0.9998834, -0.999083 ],
			"type": "VEC3"
		 },
		"accessor_color_DiamondHull_c8313697-2563-47fc-832e-290f4c04b901_0_0": {
			"bufferView": "vec4BufferView",
			"byteOffset": 0,
			"byteStride": 16,
			"componentType": 5126,
			"count": 5142,
			"max": [ 0.8666667, 0.9098039, 0.8980392, 1 ],
			"min": [ 0.03529412, 0.03921569, 0.145098, 1 ],
			"type": "VEC4"
		 },
		"accessor_uv0_DiamondHull_c8313697-2563-47fc-832e-290f4c04b901_0_0": {
			"bufferView": "vec2BufferView",
			"byteOffset": 0,
			"byteStride": 8,
			"componentType": 5126,
			"count": 5142,
			"max": [ 0, 1 ],
			"min": [ 0, 1 ],
			"type": "VEC2"
		 },
		"accessor_indices_0_DiamondHull_c8313697-2563-47fc-832e-290f4c04b901_0_0": {
			"bufferView": "ushortBufferView",
			"byteOffset": 0,
			"byteStride": 0,
			"componentType": 5123,
			"count": 5142,
			"max": [ 5141 ],
			"min": [ 0 ],
			"type": "SCALAR"
		 },
		"accessor_position_Comet_1caa6d7d-f015-3f54-3a4b-8b5354d39f81_0_0": {
			"bufferView": "vec3BufferView",
			"byteOffset": 123408,
			"byteStride": 12,
			"componentType": 5126,
			"count": 9440,
			"max": [ 0.7684953, 1.397357, 0.3194309 ],
			"min": [ -0.01687459, 0.6407319, -0.2592728 ],
			"type": "VEC3"
		 },
		"accessor_normal_Comet_1caa6d7d-f015-3f54-3a4b-8b5354d39f81_0_0": {
			"bufferView": "vec3BufferView",
			"byteOffset": 236688,
			"byteStride": 12,
			"componentType": 5126,
			"count": 9440,
			"max": [ 0.9982923, 0.9979134, 0.8484101 ],
			"min": [ -0.9982923, -0.9979135, -0.8484101 ],
			"type": "VEC3"
		 },
		"accessor_color_Comet_1caa6d7d-f015-3f54-3a4b-8b5354d39f81_0_0": {
			"bufferView": "vec4BufferView",
			"byteOffset": 82272,
			"byteStride": 16,
			"componentType": 5126,
			"count": 9440,
			"max": [ 0.2352941, 0.06666667, 0.2392157, 1 ],
			"min": [ 0.03529412, 0.03921569, 0.145098, 1 ],
			"type": "VEC4"
		 },
		"accessor_tangent_Comet_1caa6d7d-f015-3f54-3a4b-8b5354d39f81_0_0": {
			"bufferView": "vec4BufferView",
			"byteOffset": 233312,
			"byteStride": 16,
			"componentType": 5126,
			"count": 9440,
			"max": [ 0.9990832, 0.9996357, 0.8736151, 1 ],
			"min": [ -0.9990833, -0.9996357, -0.8736151, 1 ],
			"type": "VEC4"
		 },
		"accessor_uv0_Comet_1caa6d7d-f015-3f54-3a4b-8b5354d39f81_0_0": {
			"bufferView": "vec3BufferView",
			"byteOffset": 349968,
			"byteStride": 12,
			"componentType": 5126,
			"count": 9440,
			"max": [ 0.9666666, 1, 0.01845142 ],
			"min": [ 0, 0, 0 ],
			"type": "VEC3"
		 },
		"accessor_indices_0_Comet_1caa6d7d-f015-3f54-3a4b-8b5354d39f81_0_0": {
			"bufferView": "ushortBufferView",
			"byteOffset": 10284,
			"byteStride": 0,
			"componentType": 5123,
			"count": 47616,
			"max": [ 9439 ],
			"min": [ 0 ],
			"type": "SCALAR"
		 }
	},
	"bufferViews": {
		"ushortBufferView": {
			"buffer": "sketch",
			"byteLength": 105516,
			"byteOffset": 0,
			"target": 34963
		},
		"vec2BufferView": {
			"buffer": "sketch",
			"byteLength": 41136,
			"byteOffset": 105516,
			"target": 34962
		},
		"vec3BufferView": {
			"buffer": "sketch",
			"byteLength": 463248,
			"byteOffset": 146652,
			"target": 34962
		},
		"vec4BufferView": {
			"buffer": "sketch",
			"byteLength": 384352,
			"byteOffset": 609900,
			"target": 34962
		}
	},
	"meshes": {
		"mesh_DiamondHull_c8313697-2563-47fc-832e-290f4c04b901_0_0": {
			"name": "mesh_DiamondHull_c8313697-2563-47fc-832e-290f4c04b901_0_0",
			"primitives": [
				{
					"attributes": {
						"POSITION": "accessor_position_DiamondHull_c8313697-2563-47fc-832e-290f4c04b901_0_0",
						"NORMAL": "accessor_normal_DiamondHull_c8313697-2563-47fc-832e-290f4c04b901_0_0",
						"COLOR": "accessor_color_DiamondHull_c8313697-2563-47fc-832e-290f4c04b901_0_0",
						"TEXCOORD_0": "accessor_uv0_DiamondHull_c8313697-2563-47fc-832e-290f4c04b901_0_0"
					},
					"indices": "accessor_indices_0_DiamondHull_c8313697-2563-47fc-832e-290f4c04b901_0_0",
					"material": "material_c8313697-2563-47fc-832e-290f4c04b901",
					"mode": 4
				}
			]
		},
		"mesh_Comet_1caa6d7d-f015-3f54-3a4b-8b5354d39f81_0_0": {
			"name": "mesh_Comet_1caa6d7d-f015-3f54-3a4b-8b5354d39f81_0_0",
			"primitives": [
				{
					"attributes": {
						"POSITION": "accessor_position_Comet_1caa6d7d-f015-3f54-3a4b-8b5354d39f81_0_0",
						"NORMAL": "accessor_normal_Comet_1caa6d7d-f015-3f54-3a4b-8b5354d39f81_0_0",
						"COLOR": "accessor_color_Comet_1caa6d7d-f015-3f54-3a4b-8b5354d39f81_0_0",
						"TANGENT": "accessor_tangent_Comet_1caa6d7d-f015-3f54-3a4b-8b5354d39f81_0_0",
						"TEXCOORD_0": "accessor_uv0_Comet_1caa6d7d-f015-3f54-3a4b-8b5354d39f81_0_0"
					},
					"indices": "accessor_indices_0_Comet_1caa6d7d-f015-3f54-3a4b-8b5354d39f81_0_0",
					"material": "material_1caa6d7d-f015-3f54-3a4b-8b5354d39f81",
					"mode": 4
				}
			]
		}
	},
	"shaders": {
		"vertex_c8313697-2563-47fc-832e-290f4c04b901": {
			"type": 35633,
			"uri": "https://www.tiltbrush.com/shaders/brushes/DiamondHull-c8313697-2563-47fc-832e-290f4c04b901/DiamondHull-c8313697-2563-47fc-832e-290f4c04b901-v10.0-vertex.glsl"
		},
		"fragment_c8313697-2563-47fc-832e-290f4c04b901": {
			"type": 35632,
			"uri": "https://www.tiltbrush.com/shaders/brushes/DiamondHull-c8313697-2563-47fc-832e-290f4c04b901/DiamondHull-c8313697-2563-47fc-832e-290f4c04b901-v10.0-fragment.glsl"
		},
		"vertex_1caa6d7d-f015-3f54-3a4b-8b5354d39f81": {
			"type": 35633,
			"uri": "https://www.tiltbrush.com/shaders/brushes/Comet-1caa6d7d-f015-3f54-3a4b-8b5354d39f81/Comet-1caa6d7d-f015-3f54-3a4b-8b5354d39f81-v10.0-vertex.glsl"
		},
		"fragment_1caa6d7d-f015-3f54-3a4b-8b5354d39f81": {
			"type": 35632,
			"uri": "https://www.tiltbrush.com/shaders/brushes/Comet-1caa6d7d-f015-3f54-3a4b-8b5354d39f81/Comet-1caa6d7d-f015-3f54-3a4b-8b5354d39f81-v10.0-fragment.glsl"
		}
	},
	"programs": {
		"program_c8313697-2563-47fc-832e-290f4c04b901": {
			"attributes": [
				"a_position",
				"a_normal",
				"a_color",
				"a_texcoord0"				
			],
			"vertexShader": "vertex_c8313697-2563-47fc-832e-290f4c04b901",
			"fragmentShader": "fragment_c8313697-2563-47fc-832e-290f4c04b901"
		},
		"program_1caa6d7d-f015-3f54-3a4b-8b5354d39f81": {
			"attributes": [
				"a_position",
				"a_normal",
				"a_color",
				"a_tangent",
				"a_texcoord0"				
			],
			"vertexShader": "vertex_1caa6d7d-f015-3f54-3a4b-8b5354d39f81",
			"fragmentShader": "fragment_1caa6d7d-f015-3f54-3a4b-8b5354d39f81"
		}
	},
	"techniques": {
		"technique_c8313697-2563-47fc-832e-290f4c04b901": {
			"program": "program_c8313697-2563-47fc-832e-290f4c04b901",
			"parameters": {
				"position": {
					"type": 35665,
					"semantic": "POSITION"
				},
				"normal": {
					"type": 35665,
					"semantic": "NORMAL"
				},
				"color": {
					"type": 35666,
					"semantic": "COLOR"
				},
				"texcoord0": {
					"type": 35664,
					"semantic": "TEXCOORD_0"
				},
				"modelViewMatrix": {
					"type": 35676,
					"semantic": "MODELVIEW"
				},
				"projectionMatrix": {
					"type": 35676,
					"semantic": "PROJECTION"
				},
				"normalMatrix": {
					"type": 35675,
					"semantic": "MODELVIEWINVERSETRANSPOSE"
				},
				"SceneLight_0_matrix": {
					"type": 35676,
					"semantic": "MODELVIEW",
					"node": "node_SceneLight_0_-1038"
				},
				"SceneLight_0_color": {
					"type": 35666,
					"node": "node_SceneLight_0_-1038"
				},
				"SceneLight_1_matrix": {
					"type": 35676,
					"semantic": "MODELVIEW",
					"node": "node_SceneLight_1_-1044"
				},
				"SceneLight_1_color": {
					"type": 35666,
					"node": "node_SceneLight_1_-1044"
				},
				"ambient_light_color": {
					"type": 35666
				},
				"MainTex_TexelSize": {
					"type": 35666
				},
				"MainTex": {
					"type": 35678
				}				
			},
			"attributes": {
				"a_position": "position",
				"a_normal": "normal",
				"a_color": "color",
				"a_texcoord0": "texcoord0"				
			},
			"uniforms": {
				"u_modelViewMatrix": "modelViewMatrix",
				"u_projectionMatrix": "projectionMatrix",
				"u_normalMatrix": "normalMatrix",
				"u_SceneLight_0_matrix": "SceneLight_0_matrix",
				"u_SceneLight_0_color": "SceneLight_0_color",
				"u_SceneLight_1_matrix": "SceneLight_1_matrix",
				"u_SceneLight_1_color": "SceneLight_1_color",
				"u_ambient_light_color": "ambient_light_color",
				"u_MainTex_TexelSize": "MainTex_TexelSize",
				"u_MainTex": "MainTex"				
			},
			"states": {
				"enable": [
					2929,
					3042
				],
				"functions": {
					"blendFuncSeparate": [1, 1, 1, 1],
					"depthMask": [false]
				}
			}
		},
		"technique_1caa6d7d-f015-3f54-3a4b-8b5354d39f81": {
			"program": "program_1caa6d7d-f015-3f54-3a4b-8b5354d39f81",
			"parameters": {
				"position": {
					"type": 35665,
					"semantic": "POSITION"
				},
				"normal": {
					"type": 35665,
					"semantic": "NORMAL"
				},
				"color": {
					"type": 35666,
					"semantic": "COLOR"
				},
				"tangent": {
					"type": 35666,
					"semantic": "TANGENT"
				},
				"texcoord0": {
					"type": 35665,
					"semantic": "TEXCOORD_0"
				},
				"modelViewMatrix": {
					"type": 35676,
					"semantic": "MODELVIEW"
				},
				"projectionMatrix": {
					"type": 35676,
					"semantic": "PROJECTION"
				},
				"normalMatrix": {
					"type": 35675,
					"semantic": "MODELVIEWINVERSETRANSPOSE"
				},
				"SceneLight_0_matrix": {
					"type": 35676,
					"semantic": "MODELVIEW",
					"node": "node_SceneLight_0_-1038"
				},
				"SceneLight_0_color": {
					"type": 35666,
					"node": "node_SceneLight_0_-1038"
				},
				"SceneLight_1_matrix": {
					"type": 35676,
					"semantic": "MODELVIEW",
					"node": "node_SceneLight_1_-1044"
				},
				"SceneLight_1_color": {
					"type": 35666,
					"node": "node_SceneLight_1_-1044"
				},
				"ambient_light_color": {
					"type": 35666
				},
				"Speed": {
					"type": 5126
				},
				"EmissionGain": {
					"type": 5126
				},
				"MainTex_TexelSize": {
					"type": 35666
				},
				"AlphaMask_TexelSize": {
					"type": 35666
				},
				"MainTex": {
					"type": 35678
				},
				"AlphaMask": {
					"type": 35678
				}				
			},
			"attributes": {
				"a_position": "position",
				"a_normal": "normal",
				"a_color": "color",
				"a_tangent": "tangent",
				"a_texcoord0": "texcoord0"				
			},
			"uniforms": {
				"u_modelViewMatrix": "modelViewMatrix",
				"u_projectionMatrix": "projectionMatrix",
				"u_normalMatrix": "normalMatrix",
				"u_SceneLight_0_matrix": "SceneLight_0_matrix",
				"u_SceneLight_0_color": "SceneLight_0_color",
				"u_SceneLight_1_matrix": "SceneLight_1_matrix",
				"u_SceneLight_1_color": "SceneLight_1_color",
				"u_ambient_light_color": "ambient_light_color",
				"u_Speed": "Speed",
				"u_EmissionGain": "EmissionGain",
				"u_MainTex_TexelSize": "MainTex_TexelSize",
				"u_AlphaMask_TexelSize": "AlphaMask_TexelSize",
				"u_MainTex": "MainTex",
				"u_AlphaMask": "AlphaMask"				
			},
			"states": {
				"enable": [
					2929,
					3042
				],
				"functions": {
					"blendFuncSeparate": [1, 1, 1, 1],
					"depthMask": [false]
				}
			}
		}
	},
	"samplers": {
		"sampler_LINEAR_LINEAR_REPEAT": {
			"magFilter": 9729,
			"minFilter": 9987,
			"wrapS": 10497,
			"wrapT": 10497
		}
	},
	"textures": {
		"texture_c8313697-2563-47fc-832e-290f4c04b901_MainTex": {
			"format": 6408,
			"internalFormat": 6408,
			"sampler": "sampler_LINEAR_LINEAR_REPEAT",
			"source": "image_c8313697-2563-47fc-832e-290f4c04b901_MainTex",
			"target": 3553,
			"type": 5121
		},
		"texture_1caa6d7d-f015-3f54-3a4b-8b5354d39f81_MainTex": {
			"format": 6408,
			"internalFormat": 6408,
			"sampler": "sampler_LINEAR_LINEAR_REPEAT",
			"source": "image_1caa6d7d-f015-3f54-3a4b-8b5354d39f81_MainTex",
			"target": 3553,
			"type": 5121
		},
		"texture_1caa6d7d-f015-3f54-3a4b-8b5354d39f81_AlphaMask": {
			"format": 6408,
			"internalFormat": 6408,
			"sampler": "sampler_LINEAR_LINEAR_REPEAT",
			"source": "image_1caa6d7d-f015-3f54-3a4b-8b5354d39f81_AlphaMask",
			"target": 3553,
			"type": 5121
		}
	},
	"images": {
		"image_c8313697-2563-47fc-832e-290f4c04b901_MainTex": {
			"uri": "https://www.tiltbrush.com/shaders/brushes/DiamondHull-c8313697-2563-47fc-832e-290f4c04b901/DiamondHull-c8313697-2563-47fc-832e-290f4c04b901-v10.0-MainTex.png"
		},
		"image_1caa6d7d-f015-3f54-3a4b-8b5354d39f81_MainTex": {
			"uri": "https://www.tiltbrush.com/shaders/brushes/Comet-1caa6d7d-f015-3f54-3a4b-8b5354d39f81/Comet-1caa6d7d-f015-3f54-3a4b-8b5354d39f81-v10.0-MainTex.png"
		},
		"image_1caa6d7d-f015-3f54-3a4b-8b5354d39f81_AlphaMask": {
			"uri": "https://www.tiltbrush.com/shaders/brushes/Comet-1caa6d7d-f015-3f54-3a4b-8b5354d39f81/Comet-1caa6d7d-f015-3f54-3a4b-8b5354d39f81-v10.0-AlphaMask.png"
		}
	},
	"materials": {
		"material_c8313697-2563-47fc-832e-290f4c04b901": {
			"technique": "technique_c8313697-2563-47fc-832e-290f4c04b901",
			"values": {
				"SceneLight_0_color": [0.7780392, 0.8156863, 0.9913726, 1],
				"SceneLight_1_color": [0.4282353, 0.4211765, 0.3458824, 1],
				"ambient_light_color": [0.3921569, 0.3921569, 0.3921569, 1],
				"MainTex_TexelSize": [0.0078125, 0.0078125, 128, 128],
				"MainTex": "texture_c8313697-2563-47fc-832e-290f4c04b901_MainTex"				
			},
			"name": "material_c8313697-2563-47fc-832e-290f4c04b901"
		},
		"material_1caa6d7d-f015-3f54-3a4b-8b5354d39f81": {
			"technique": "technique_1caa6d7d-f015-3f54-3a4b-8b5354d39f81",
			"values": {
				"SceneLight_0_color": [0.7780392, 0.8156863, 0.9913726, 1],
				"SceneLight_1_color": [0.4282353, 0.4211765, 0.3458824, 1],
				"ambient_light_color": [0.3921569, 0.3921569, 0.3921569, 1],
				"Speed": 1,
				"EmissionGain": 0.5,
				"MainTex_TexelSize": [0.00390625, 0.00390625, 256, 256],
				"AlphaMask_TexelSize": [0.015625, 1, 64, 1],
				"MainTex": "texture_1caa6d7d-f015-3f54-3a4b-8b5354d39f81_MainTex",
				"AlphaMask": "texture_1caa6d7d-f015-3f54-3a4b-8b5354d39f81_AlphaMask"				
			},
			"name": "material_1caa6d7d-f015-3f54-3a4b-8b5354d39f81"
		}
	},
	"nodes": {
		"node_DiamondHull_c8313697-2563-47fc-832e-290f4c04b901_0_0": {
			"name": "node_DiamondHull_c8313697-2563-47fc-832e-290f4c04b901_0_0",
			"meshes": [
				"mesh_DiamondHull_c8313697-2563-47fc-832e-290f4c04b901_0_0"
			],
			"matrix": [1, 0, 0, 0, 0, 1, 0, 0, 0, 0, 1, 0, 0, 0, 0, 1]
		},
		"node_SceneLight_0_-1038": {
			"name": "node_SceneLight_0_-1038",
			"light": "SceneLight_0",
			"matrix": [0.898794, 0.2191856, -0.3796406, 0, -0.4383712, 0.449397, -0.7783785, 0, -1.490116E-08, 0.8660254, 0.4999999, 0, -1.937643, -1.157756, -0.5356769, 1]
		},
		"node_SceneLight_1_-1044": {
			"name": "node_SceneLight_1_-1044",
			"light": "SceneLight_1",
			"matrix": [0.7660444, -0.4924039, -0.4131759, 0, -0.6427876, -0.5868242, -0.4924039, 0, 8.940697E-08, 0.6427876, -0.7660446, 0, -1.937643, -1.319059, -0.432916, 1]
		},
		"node_Comet_1caa6d7d-f015-3f54-3a4b-8b5354d39f81_0_0": {
			"name": "node_Comet_1caa6d7d-f015-3f54-3a4b-8b5354d39f81_0_0",
			"meshes": [
				"mesh_Comet_1caa6d7d-f015-3f54-3a4b-8b5354d39f81_0_0"
			],
			"matrix": [1, 0, 0, 0, 0, 1, 0, 0, 0, 0, 1, 0, 0, 0, 0, 1]
		}
	},
	"scene": "defaultScene",
	"scenes": {
		"defaultScene": {
			"nodes": [
				"node_DiamondHull_c8313697-2563-47fc-832e-290f4c04b901_0_0",
				"node_SceneLight_0_-1038",
				"node_SceneLight_1_-1044",
				"node_Comet_1caa6d7d-f015-3f54-3a4b-8b5354d39f81_0_0"
			],
			"extras": {
				"TB_EnvironmentGuid": "580b4529-ac50-4fe9-b8d2-635765a14893",
				"TB_Environment": "Black",
				"TB_UseGradient": "true",
				"TB_SkyColorA": "0, 0, 0",
				"TB_SkyColorB": "0, 0, 0",
				"TB_SkyGradientDirection": "0, 1, 0",
				"TB_FogColor": "0.01960784, 0.01960784, 0.01960784",
				"TB_FogDensity": "0",
				"TB_SkyColorHorizon": "0, 0, 0",
				"TB_SkyColorZenith": "0, 0, 0"
			}
		}
	}
}